<svg id="Layer_1" data-name="Layer 1" xmlns="http://www.w3.org/2000/svg" viewBox="100 700 1700 540"><defs><style>path{fill:#e8eef4;}.cls-1{fill:#e8eef4;}.cls-2{fill:#e85565;}rect.cls-2{fill:#e85565;}</style></defs><path class="cls-1" d="M701.88,1088a5.19,5.19,0,0,1-1.21-.08,465.7,465.7,0,0,0-67-5.15.74.74,0,0,1-.74-.74h0V789.66a.47.47,0,0,1,.47-.47.45.45,0,0,1,.16,0l68.33,24.7a1,1,0,0,1,.66.93v272.44A.71.71,0,0,1,701.88,1088Zm-57-259.19a.67.67,0,0,0,.44.63l9,3.26a.67.67,0,0,0,.86-.4.85.85,0,0,0,0-.23V820a.68.68,0,0,0-.44-.63l-9-3.26a.67.67,0,0,0-.86.4.59.59,0,0,0,0,.23Zm26.8,9.84a.43.43,0,0,0,.55-.25.4.4,0,0,0,0-.15V826.09a.43.43,0,0,0-.28-.4l-9.18-3.32a.44.44,0,0,0-.56.25.77.77,0,0,0,0,.15v12.16a.42.42,0,0,0,.28.4Zm7.92,2.27a.41.41,0,0,0,.28.39l9.52,3.45a.41.41,0,0,0,.53-.25.4.4,0,0,0,0-.15v-12.1a.45.45,0,0,0-.28-.39l-9.52-3.45a.42.42,0,0,0-.54.26.59.59,0,0,0,0,.14Zm-34-1.1a.59.59,0,0,0-.75.35.64.64,0,0,0,0,.2v12a.57.57,0,0,0,.38.55l9.23,3.33a.57.57,0,0,0,.74-.34.52.52,0,0,0,0-.21v-12a.59.59,0,0,0-.38-.55Zm17.26,6a.5.5,0,0,0-.64.3.51.51,0,0,0,0,.17v12.16a.5.5,0,0,0,.33.47l9.06,3.28a.5.5,0,0,0,.64-.3.47.47,0,0,0,0-.17V849.55a.5.5,0,0,0-.33-.47Zm26.3,22.2a.59.59,0,0,0,.75-.35.48.48,0,0,0,0-.2V855.83a.59.59,0,0,0-.39-.55L680.41,852a.59.59,0,0,0-.76.36.63.63,0,0,0,0,.19v11.62a.58.58,0,0,0,.39.55Zm-44.27,7.94a.57.57,0,0,0,.38.55l9.19,3.32a.57.57,0,0,0,.74-.34.52.52,0,0,0,0-.21V867.19a.59.59,0,0,0-.38-.55l-9.19-3.32a.59.59,0,0,0-.75.35.64.64,0,0,0,0,.2Zm26.61,9.56a.57.57,0,0,0,.74-.34.52.52,0,0,0,0-.21V873.26a.59.59,0,0,0-.38-.55l-8.86-3.2a.59.59,0,0,0-.75.35.64.64,0,0,0,0,.2v11.69a.57.57,0,0,0,.38.55ZM690,879a.39.39,0,0,0-.24-.35l-9.71-3.5a.38.38,0,0,0-.48.22.59.59,0,0,0,0,.13V887.6a.36.36,0,0,0,.24.35l9.71,3.5a.36.36,0,0,0,.47-.21.35.35,0,0,0,0-.14Zm-45.2,20.56a.58.58,0,0,0,.39.55l9.28,3.35a.59.59,0,0,0,.75-.35.48.48,0,0,0,0-.2v-12a.59.59,0,0,0-.39-.55L645.57,887a.59.59,0,0,0-.76.36.63.63,0,0,0,0,.19Zm17.33,5.77a.5.5,0,0,0,.34.48l9,3.26a.5.5,0,0,0,.65-.31.47.47,0,0,0,0-.17v-12a.52.52,0,0,0-.34-.48l-9-3.27a.51.51,0,0,0-.65.31.51.51,0,0,0,0,.17Zm27.28,9.51a.5.5,0,0,0,.65-.31.47.47,0,0,0,0-.17V902.45a.52.52,0,0,0-.34-.48l-9.44-3.41a.51.51,0,0,0-.65.31.51.51,0,0,0,0,.17V911a.5.5,0,0,0,.34.48Zm-44.53,8.32a.58.58,0,0,0,.39.55l9.17,3.31a.59.59,0,0,0,.75-.35.48.48,0,0,0,0-.2v-12a.59.59,0,0,0-.39-.55l-9.17-3.31a.59.59,0,0,0-.76.36.63.63,0,0,0,0,.19Zm26.56,9.34a.62.62,0,0,0,.8-.38.54.54,0,0,0,0-.22V920.46a.64.64,0,0,0-.42-.59l-8.68-3.14a.64.64,0,0,0-.81.39.71.71,0,0,0,0,.21v11.46a.63.63,0,0,0,.42.59Zm8.17,1.92a.35.35,0,0,0,.24.34l9.64,3.48a.36.36,0,0,0,.46-.22.5.5,0,0,0,0-.12V925.83a.37.37,0,0,0-.24-.34L680.07,922a.36.36,0,0,0-.46.22.25.25,0,0,0,0,.12Zm-34.76,12.31a.57.57,0,0,0,.38.55l9.22,3.33a.57.57,0,0,0,.74-.34.52.52,0,0,0,0-.21v-12a.59.59,0,0,0-.38-.55l-9.22-3.33a.59.59,0,0,0-.75.35.64.64,0,0,0,0,.2Zm26.53,9.36a.62.62,0,0,0,.8-.38.78.78,0,0,0,0-.21V943.75a.64.64,0,0,0-.42-.59l-8.85-3.2a.62.62,0,0,0-.84.59v11.77a.63.63,0,0,0,.42.59Zm18,5.65a.43.43,0,0,0,.55-.25.4.4,0,0,0,0-.15v-12a.43.43,0,0,0-.28-.4l-9.47-3.43a.44.44,0,0,0-.56.25.77.77,0,0,0,0,.15v12a.42.42,0,0,0,.28.4Zm-43.93-4.09a.5.5,0,0,0-.64.3.51.51,0,0,0,0,.17V970.3a.5.5,0,0,0,.33.47l9.41,3.41a.5.5,0,0,0,.64-.3.47.47,0,0,0,0-.17V961.55a.5.5,0,0,0-.33-.47Zm26.73,9.69a.68.68,0,0,0-.45-.64l-8.56-3.1a.68.68,0,0,0-.87.41.62.62,0,0,0,0,.23v11.53a.68.68,0,0,0,.45.64l8.56,3.1a.67.67,0,0,0,.87-.41.85.85,0,0,0,0-.23Zm7.38,14a.4.4,0,0,0,.27.39l9.5,3.43a.4.4,0,0,0,.52-.24.35.35,0,0,0,0-.14V972.72a.42.42,0,0,0-.27-.39l-9.5-3.43a.41.41,0,0,0-.53.25.59.59,0,0,0,0,.13ZM644.79,993.7a.5.5,0,0,0,.33.47l9.37,3.39a.5.5,0,0,0,.64-.3.47.47,0,0,0,0-.17V985.22a.5.5,0,0,0-.33-.47l-9.37-3.38a.5.5,0,0,0-.64.3.51.51,0,0,0,0,.17Zm26.8,9.34a.43.43,0,0,0,.55-.25.4.4,0,0,0,0-.15v-12a.43.43,0,0,0-.28-.4l-9.11-3.3a.44.44,0,0,0-.56.25.77.77,0,0,0,0,.15v12a.42.42,0,0,0,.28.4Zm8,1.6a.5.5,0,0,0,.34.48l9.26,3.34a.5.5,0,0,0,.65-.31.47.47,0,0,0,0-.17V996.12a.52.52,0,0,0-.34-.48l-9.26-3.34a.51.51,0,0,0-.65.31.51.51,0,0,0,0,.17Zm-34.16.06a.51.51,0,0,0-.65.31.51.51,0,0,0,0,.17v12.08a.5.5,0,0,0,.34.48l9.38,3.39a.5.5,0,0,0,.65-.31.47.47,0,0,0,0-.17v-12.08a.52.52,0,0,0-.34-.48Zm17.84,5.77a.7.7,0,0,0-.9.42.67.67,0,0,0,0,.24v11.49a.69.69,0,0,0,.46.66l8.48,3.06a.7.7,0,0,0,.9-.42.93.93,0,0,0,0-.24v-11.5a.72.72,0,0,0-.46-.66Zm26,21.36a.48.48,0,0,0,.63-.29.47.47,0,0,0,0-.17v-12a.5.5,0,0,0-.32-.46l-9.34-3.37a.49.49,0,0,0-.63.29.51.51,0,0,0,0,.17v12a.49.49,0,0,0,.32.46Zm-44.42,8.91a.47.47,0,0,0,.32.46l9.33,3.37a.48.48,0,0,0,.63-.29.47.47,0,0,0,0-.17v-12a.5.5,0,0,0-.32-.46l-9.33-3.37a.49.49,0,0,0-.63.29.51.51,0,0,0,0,.17Zm26.81,9.18a.43.43,0,0,0,.56-.26.45.45,0,0,0,0-.16v-12.29a.44.44,0,0,0-.29-.41l-9.19-3.33a.45.45,0,0,0-.57.27.77.77,0,0,0,0,.15v12.29a.42.42,0,0,0,.29.41Zm17.54,5.2a.5.5,0,0,0,.65-.31.47.47,0,0,0,0-.17v-11.81a.52.52,0,0,0-.34-.48l-9.26-3.34a.51.51,0,0,0-.65.31.51.51,0,0,0,0,.17v11.81a.5.5,0,0,0,.34.48Z"/><path class="cls-1" d="M626,789.18a.39.39,0,0,1,.53.15.36.36,0,0,1,.06.2v292.75a.57.57,0,0,1-.57.57h0c-15.55-.28-33.88,1.31-46,2.39a.77.77,0,0,1-.83-.7V816.67a.76.76,0,0,1,.38-.66Zm-12.13,49a.63.63,0,0,0,.36-.57V825.82a.64.64,0,0,0-.64-.64.67.67,0,0,0-.28.06l-6.25,3a.64.64,0,0,0-.36.57v11.82a.64.64,0,0,0,.63.65.73.73,0,0,0,.29-.07Zm-23-2a.52.52,0,0,0-.29.46v12a.51.51,0,0,0,.51.51.59.59,0,0,0,.22,0l6.4-3.1a.51.51,0,0,0,.29-.46v-12a.51.51,0,0,0-.51-.51.54.54,0,0,0-.22,0Zm16,15.46a.44.44,0,0,0-.25.4v12.07a.44.44,0,0,0,.43.44.34.34,0,0,0,.2,0l6.7-3.24a.45.45,0,0,0,.25-.4V848.86a.44.44,0,0,0-.44-.44.41.41,0,0,0-.19,0ZM597.76,869a.51.51,0,0,0,.29-.46V856.4a.51.51,0,0,0-.51-.51.54.54,0,0,0-.22.05l-6.5,3.14a.52.52,0,0,0-.29.46v12.15a.51.51,0,0,0,.51.51.59.59,0,0,0,.22-.05Zm9.13,5.8a.51.51,0,0,0-.28.45v12.23a.5.5,0,0,0,.5.5.44.44,0,0,0,.22,0l6.59-3.18a.5.5,0,0,0,.28-.45V872.09a.51.51,0,0,0-.5-.5.54.54,0,0,0-.22,0Zm-9.13,17a.44.44,0,0,0,.24-.37V879.5a.42.42,0,0,0-.42-.42.37.37,0,0,0-.18,0l-6.56,3.18a.4.4,0,0,0-.24.37v11.9a.42.42,0,0,0,.42.42.39.39,0,0,0,.18,0ZM614,908.18a.52.52,0,0,0,.29-.47V895.54a.52.52,0,0,0-.52-.52.59.59,0,0,0-.23.05l-6.55,3.17a.52.52,0,0,0-.29.47v12.17a.51.51,0,0,0,.75.47Zm-16.1,7a.58.58,0,0,0,.32-.52v-12.2a.58.58,0,0,0-.57-.57.51.51,0,0,0-.25.06l-6.52,3.15a.56.56,0,0,0-.32.52v12.2a.56.56,0,0,0,.57.57.54.54,0,0,0,.25-.06ZM614,931.51a.45.45,0,0,0,.25-.4V918.73a.44.44,0,0,0-.45-.43.37.37,0,0,0-.18,0l-6.81,3.29a.44.44,0,0,0-.25.4v12.38a.43.43,0,0,0,.44.43.41.41,0,0,0,.19,0Zm-16.19,6.84a.44.44,0,0,0,.24-.37v-12a.42.42,0,0,0-.42-.42.37.37,0,0,0-.18,0l-6.7,3.24a.4.4,0,0,0-.24.37v12a.42.42,0,0,0,.42.42.39.39,0,0,0,.18,0ZM607,945.2a.52.52,0,0,0-.29.46v11.92a.51.51,0,0,0,.51.51.59.59,0,0,0,.22-.05l6.59-3.19a.51.51,0,0,0,.29-.46V942.46a.52.52,0,0,0-.52-.5.46.46,0,0,0-.21,0Zm-9.08,16.58a.39.39,0,0,0,.23-.36V949.14a.4.4,0,0,0-.4-.4.47.47,0,0,0-.17,0l-6.83,3.3a.41.41,0,0,0-.23.36v12.27a.4.4,0,0,0,.4.4.35.35,0,0,0,.17,0Zm9,6.68a.52.52,0,0,0-.29.47V981a.51.51,0,0,0,.75.47l6.66-3.23a.52.52,0,0,0,.29-.47v-12a.52.52,0,0,0-.52-.52.59.59,0,0,0-.23,0Zm-9,16.52a.45.45,0,0,0,.25-.4V972.43a.46.46,0,0,0-.45-.46.46.46,0,0,0-.2,0l-6.67,3.23a.46.46,0,0,0-.25.4V987.8a.45.45,0,0,0,.44.46.54.54,0,0,0,.21,0Zm16,16.61a.58.58,0,0,0,.32-.52V989.25a.58.58,0,0,0-.57-.57.51.51,0,0,0-.25.06L607,991.82a.56.56,0,0,0-.32.52v11.82a.56.56,0,0,0,.57.57.54.54,0,0,0,.25-.06Zm-16.1,6.64a.37.37,0,0,0,.2-.33V995.65a.36.36,0,0,0-.36-.36.42.42,0,0,0-.16,0l-6.71,3.24a.34.34,0,0,0-.2.33v12.25a.36.36,0,0,0,.36.36.32.32,0,0,0,.16,0ZM614,1024.89a.49.49,0,0,0,.28-.44v-12.23a.49.49,0,0,0-.5-.49.46.46,0,0,0-.2,0l-6.69,3.24a.49.49,0,0,0-.28.44v12.23a.49.49,0,0,0,.49.49.54.54,0,0,0,.21,0Zm-23.06-3.13a.52.52,0,0,0-.29.46v12.17a.51.51,0,0,0,.51.51.59.59,0,0,0,.22-.05l6.48-3.13a.51.51,0,0,0,.29-.46v-12.17a.51.51,0,0,0-.51-.51.54.54,0,0,0-.22,0Z"/><path class="cls-1" d="M531.48,1094.21a.43.43,0,0,1-.52-.32.31.31,0,0,1,0-.1V897a2,2,0,0,0-2-2,1.93,1.93,0,0,0-.63.1l-2.4.82a2.25,2.25,0,0,0-1.53,2.14v197a.94.94,0,0,1-.65.89q-25.23,7.52-51.29,17.66a.77.77,0,0,1-1-.45.65.65,0,0,1-.05-.27V943.18a.43.43,0,0,1,.29-.41l26.68-9.11a.67.67,0,0,0,.45-.63v-35.3a.61.61,0,0,1,.41-.57l8.55-2.92a.73.73,0,0,0,.49-.69v-20a.67.67,0,0,1,.43-.62l19.58-7.37a.68.68,0,0,0,.44-.63V818.6a1.08,1.08,0,0,1,1.08-1.08h1.47a1,1,0,0,1,1,1h0v46.23a1,1,0,0,0,.65.92l19,6.88a1.21,1.21,0,0,1,.8,1.14v17.77a1.25,1.25,0,0,0,.83,1.18l10,3.61a1,1,0,0,1,.66.93v28.33a1.75,1.75,0,0,0,1.15,1.64l11,4a.94.94,0,0,1,.62.89v153.2a.71.71,0,0,1-.63.71A394.54,394.54,0,0,0,531.48,1094.21ZM507.39,953.13c0,3.29,0,5.5.1,6.65a.44.44,0,0,0,.47.4l.11,0,6.24-2.13a1,1,0,0,0,.63-.78c.06-.54.11-2,.14-4.26,0-3.29,0-5.5-.1-6.65a.45.45,0,0,0-.48-.4l-.1,0-6.24,2.13a.94.94,0,0,0-.63.78C507.46,949.4,507.41,950.82,507.39,953.13Zm-12.82-.77a.48.48,0,0,0-.34.48v10.67a.5.5,0,0,0,.5.5.45.45,0,0,0,.16,0l6.59-2.24a.51.51,0,0,0,.34-.48V950.59a.5.5,0,0,0-.51-.49.39.39,0,0,0-.15,0Zm-6.25,13.47a.73.73,0,0,0,.49-.69V954.59a.72.72,0,0,0-.72-.72.85.85,0,0,0-.23,0l-6.52,2.22a.72.72,0,0,0-.49.68v10.55a.71.71,0,0,0,.71.73.67.67,0,0,0,.24,0Zm19.42,3.82a.56.56,0,0,0-.37.52V981a.54.54,0,0,0,.55.55l.18,0,6.58-2.24a.55.55,0,0,0,.37-.52V967.93a.55.55,0,0,0-.55-.55l-.18,0Zm-13.16,3.88a.42.42,0,0,0-.28.4v10.85a.43.43,0,0,0,.43.43.4.4,0,0,0,.15,0l6.73-2.54a.43.43,0,0,0,.28-.4V971.39a.44.44,0,0,0-.44-.43.32.32,0,0,0-.14,0Zm-6.16,13.32a.43.43,0,0,0,.29-.41v-11a.43.43,0,0,0-.43-.43l-.14,0-6.85,2.35a.43.43,0,0,0-.29.41v11a.44.44,0,0,0,.42.44l.15,0Zm26.28,13.71a.37.37,0,0,0,.24-.34v-11a.36.36,0,0,0-.36-.36l-.12,0-6.76,2.32a.35.35,0,0,0-.24.34v11a.36.36,0,0,0,.36.36.25.25,0,0,0,.12,0Zm-19.91-6a.65.65,0,0,0-.43.61V1006a.64.64,0,0,0,.63.65.54.54,0,0,0,.22,0l6.28-2.15a.64.64,0,0,0,.43-.61V993a.64.64,0,0,0-.65-.63.64.64,0,0,0-.2,0Zm-13.41,4.07a.59.59,0,0,0-.41.57v10.67a.6.6,0,0,0,.6.6.63.63,0,0,0,.19,0l6.48-2.21a.6.6,0,0,0,.41-.57V997a.6.6,0,0,0-.6-.6.58.58,0,0,0-.19,0Zm33.31,23.42a.58.58,0,0,0,.39-.54v-10.64a.59.59,0,0,0-.77-.55l-6.52,2.24a.58.58,0,0,0-.39.54v10.64a.58.58,0,0,0,.58.58.63.63,0,0,0,.19,0Zm-20.14-5.87a.41.41,0,0,0-.27.38v11a.39.39,0,0,0,.4.4.3.3,0,0,0,.13,0l6.84-2.34a.4.4,0,0,0,.27-.38v-11a.4.4,0,0,0-.4-.4l-.13,0Zm-13.23,3.65a.65.65,0,0,0-.45.62v10.71a.66.66,0,0,0,.66.66.78.78,0,0,0,.21,0l6.43-2.2a.67.67,0,0,0,.45-.62v-10.71a.66.66,0,0,0-.67-.65.64.64,0,0,0-.2,0Zm33.38,23.55a.59.59,0,0,0,.4-.56V1032.1a.6.6,0,0,0-.59-.59.58.58,0,0,0-.19,0l-6.61,2.26a.59.59,0,0,0-.4.56v10.74a.58.58,0,0,0,.59.59.63.63,0,0,0,.19,0Zm-20.13-6a.44.44,0,0,0-.28.41v11.07a.43.43,0,0,0,.43.45.51.51,0,0,0,.17,0l6.87-2.59a.43.43,0,0,0,.28-.41v-11.07a.45.45,0,0,0-.43-.45.47.47,0,0,0-.17,0Zm-6.22,13.48a.51.51,0,0,0,.34-.48v-10.88a.51.51,0,0,0-.52-.5l-.15,0-6.73,2.29a.5.5,0,0,0-.35.49v10.88a.51.51,0,0,0,.68.48Zm26.36,13.82a.37.37,0,0,0,.25-.35v-11.24a.37.37,0,0,0-.38-.36l-.12,0-6.79,2.55a.38.38,0,0,0-.24.35v11a.36.36,0,0,0,.37.37l.12,0Zm-13.23,3.78a.64.64,0,0,0,.43-.61v-10.7a.64.64,0,0,0-.64-.64l-.21,0-6.3,2.15a.65.65,0,0,0-.43.61V1070a.64.64,0,0,0,.63.65.54.54,0,0,0,.22,0Zm-20.05-5.83a.56.56,0,0,0-.37.52v10.74a.54.54,0,0,0,.55.55l.18,0,6.51-2.22a.55.55,0,0,0,.37-.52V1061a.55.55,0,0,0-.55-.55l-.18,0Zm26.37,13.78a.57.57,0,0,0-.39.55v10.63a.58.58,0,0,0,.58.58.63.63,0,0,0,.19,0l6.53-2.24a.58.58,0,0,0,.39-.54v-10.63a.59.59,0,0,0-.77-.55Zm-13.22,3.66a.48.48,0,0,0-.33.46v10.84a.49.49,0,0,0,.48.5.51.51,0,0,0,.17,0l6.68-2.29a.5.5,0,0,0,.33-.46v-10.84a.5.5,0,0,0-.5-.49l-.15,0Zm-6.25,13.6a.63.63,0,0,0,.42-.58v-11a.62.62,0,0,0-.62-.62.64.64,0,0,0-.2,0l-6.71,2.29a.62.62,0,0,0-.42.58v11.05a.61.61,0,0,0,.61.62.51.51,0,0,0,.21,0Z"/><path class="cls-1" d="M809.14,1120.58a.33.33,0,0,1-.33.33.25.25,0,0,1-.12,0c-6.7-2.71-18.52-7.61-27.46-10.7q-16.65-5.76-29.8-10.2a.65.65,0,0,1-.45-.62V893.79a.37.37,0,0,1,.39-.37.45.45,0,0,1,.16,0L808.65,921a.87.87,0,0,1,.49.78Zm-39-198.67a.35.35,0,0,0-.22-.32l-8.31-3a.34.34,0,0,0-.44.2.25.25,0,0,0,0,.12v10.49a.33.33,0,0,0,.22.32l8.31,3a.34.34,0,0,0,.44-.2.5.5,0,0,0,0-.12Zm6.38,2.44a.54.54,0,0,0-.69.33.57.57,0,0,0,0,.18v10a.53.53,0,0,0,.36.51l7.41,2.68a.54.54,0,0,0,.69-.33.57.57,0,0,0,0-.18V927.54a.55.55,0,0,0-.36-.51Zm22.68,8.78a.63.63,0,0,0-.41-.58l-7.7-2.79a.63.63,0,0,0-.8.37.76.76,0,0,0,0,.21v9.94a.6.6,0,0,0,.41.59l7.7,2.78a.62.62,0,0,0,.79-.37.78.78,0,0,0,0-.21ZM761.09,949a.55.55,0,0,0,.37.52l7.83,2.83A.54.54,0,0,0,770,952a.41.41,0,0,0,0-.19v-9.92a.57.57,0,0,0-.37-.52l-7.83-2.83a.57.57,0,0,0-.72.34.63.63,0,0,0,0,.19Zm14.78,5.68a.55.55,0,0,0,.36.52l7.43,2.68a.54.54,0,0,0,.7-.32.43.43,0,0,0,0-.19v-10.1a.55.55,0,0,0-.36-.52L776.61,944a.56.56,0,0,0-.71.33.57.57,0,0,0,0,.18Zm15.3-5a.59.59,0,0,0-.75.35.64.64,0,0,0,0,.2v9.54a.57.57,0,0,0,.38.55l7.6,2.75a.57.57,0,0,0,.74-.34.52.52,0,0,0,0-.21V952.9a.59.59,0,0,0-.38-.55ZM761.1,968.43a.52.52,0,0,0,.35.5l7.87,2.84a.53.53,0,0,0,.68-.32.57.57,0,0,0,0-.18v-10a.54.54,0,0,0-.35-.5l-7.87-2.84a.53.53,0,0,0-.68.32.57.57,0,0,0,0,.18Zm22.63,8.75a.46.46,0,0,0,.59-.27.47.47,0,0,0,0-.17v-10a.46.46,0,0,0-.3-.43l-7.53-2.72a.45.45,0,0,0-.59.27.51.51,0,0,0,0,.17v10a.46.46,0,0,0,.3.43Zm15.51-1.36c0-2.11,0-3.22-.06-3.35a1.25,1.25,0,0,0-.81-1L791,968.74a.44.44,0,0,0-.55.24.5.5,0,0,0,0,.12q-.15,1.75-.09,6.67c.1,2.11.17,3.23.19,3.35a1.22,1.22,0,0,0,.8,1l7.37,2.72a.41.41,0,0,0,.54-.24.53.53,0,0,0,0-.12A66.52,66.52,0,0,0,799.24,975.82Zm-38.08,8.64c0,2.13.05,3.26.07,3.38a1.24,1.24,0,0,0,.82,1l7.46,2.74a.41.41,0,0,0,.54-.25l0-.11c.1-1.18.12-3.43.08-6.75-.12-2.13-.18-3.26-.19-3.39a1.27,1.27,0,0,0-.82-1l-7.46-2.74a.43.43,0,0,0-.55.25.43.43,0,0,0,0,.11A66,66,0,0,0,761.16,984.46Zm15.45-1.36a.53.53,0,0,0-.68.32.57.57,0,0,0,0,.18v10.11a.52.52,0,0,0,.35.5l7.43,2.68a.53.53,0,0,0,.68-.32.57.57,0,0,0,0-.18V986.28a.54.54,0,0,0-.35-.5Zm22.54,8.62a.48.48,0,0,0-.31-.44l-8-2.89a.46.46,0,0,0-.6.28.45.45,0,0,0,0,.16v10a.46.46,0,0,0,.31.44l8,2.89a.47.47,0,0,0,.6-.28.41.41,0,0,0,0-.16Zm-29,9.17a.4.4,0,0,0-.26-.38l-8.21-3a.4.4,0,0,0-.52.24.59.59,0,0,0,0,.14v10.18a.4.4,0,0,0,.26.38l8.21,3a.41.41,0,0,0,.54-.38Zm6.39,2a.53.53,0,0,0-.68.32.51.51,0,0,0,0,.17v10.21a.52.52,0,0,0,.35.5l7.55,2.72a.53.53,0,0,0,.68-.32.47.47,0,0,0,0-.17v-10.21a.54.54,0,0,0-.35-.5Zm13.83,15.77a.46.46,0,0,0,.31.44l7.79,2.82a.47.47,0,0,0,.6-.28.41.41,0,0,0,0-.16v-10a.48.48,0,0,0-.31-.44l-7.79-2.82a.46.46,0,0,0-.6.28.45.45,0,0,0,0,.16Zm-29.27,9.67a.46.46,0,0,0,.31.44l8.08,2.92a.47.47,0,0,0,.6-.28.41.41,0,0,0,0-.16v-10.26a.48.48,0,0,0-.31-.44l-8.08-2.91a.46.46,0,0,0-.6.28.45.45,0,0,0,0,.16Zm15.52-5.34a.53.53,0,0,0-.68.32.51.51,0,0,0,0,.17v10.14a.52.52,0,0,0,.35.5l7.33,2.64a.53.53,0,0,0,.68-.32.47.47,0,0,0,0-.17v-10.14a.54.54,0,0,0-.35-.5Zm21.46,18.88a.78.78,0,0,0,1-.46.86.86,0,0,0,0-.27v-9.25a.79.79,0,0,0-.51-.74l-7.16-2.58a.77.77,0,0,0-1,.46.65.65,0,0,0-.05.27v9.25a.77.77,0,0,0,.51.74Zm-28.07-.65a.46.46,0,0,0-.3-.43l-7.81-2.82a.46.46,0,0,0-.58.28.59.59,0,0,0,0,.14v10.15a.45.45,0,0,0,.3.43l7.81,2.82a.45.45,0,0,0,.57-.27.4.4,0,0,0,0-.15Zm13.51,15.57a.59.59,0,0,0,.75-.35.48.48,0,0,0,0-.2v-9.86a.59.59,0,0,0-.39-.55l-7.2-2.6a.59.59,0,0,0-.76.36.63.63,0,0,0,0,.19v9.86a.58.58,0,0,0,.39.55Zm6.87-1.57a30.37,30.37,0,0,0,.14,3.64.86.86,0,0,0,.57.74l7.34,2.65a.47.47,0,0,0,.61-.28.41.41,0,0,0,0-.16c0-3.19.08-5.36.1-6.52s-.09-2.5-.2-3.64a.9.9,0,0,0-.57-.74l-7.34-2.65a.47.47,0,0,0-.61.28.45.45,0,0,0,0,.16Q790.34,1053.44,790.39,1055.17Zm-29.21,13.28a.57.57,0,0,0,.38.54l7.74,2.8a.56.56,0,0,0,.72-.35.37.37,0,0,0,0-.18v-10a.57.57,0,0,0-.38-.54l-7.74-2.8a.57.57,0,0,0-.73.35.57.57,0,0,0,0,.18ZM783.5,1077a.66.66,0,0,0,.85-.39.85.85,0,0,0,0-.23v-10a.66.66,0,0,0-.44-.62l-7.2-2.6a.66.66,0,0,0-.84.4.57.57,0,0,0,0,.22v10a.65.65,0,0,0,.43.62Zm7.53-8.61a.63.63,0,0,0-.79.36.76.76,0,0,0,0,.21v9.7a.59.59,0,0,0,.4.58l7.71,2.78a.6.6,0,0,0,.78-.36.78.78,0,0,0,0-.21v-9.7a.62.62,0,0,0-.4-.58Zm-20.95,12.92a.35.35,0,0,0-.22-.32l-8.28-3a.34.34,0,0,0-.44.2.25.25,0,0,0,0,.12v10.31a.33.33,0,0,0,.22.32l8.28,3a.34.34,0,0,0,.44-.2.5.5,0,0,0,0-.12Zm5.58,8.51a31,31,0,0,0,0,3.63.85.85,0,0,0,.56.75l7.25,2.82a.47.47,0,0,0,.61-.28l0-.14q.18-4.75.27-6.5c0-1.28,0-2.49-.12-3.62a.89.89,0,0,0-.55-.76l-7.25-2.82a.47.47,0,0,0-.61.28.35.35,0,0,0,0,.14C775.72,1086.46,775.66,1088.63,775.66,1089.79Zm23.45,1.67a.57.57,0,0,0-.38-.54l-7.67-2.76a.57.57,0,0,0-.73.35.57.57,0,0,0,0,.18v9.91a.57.57,0,0,0,.38.54l7.67,2.77a.56.56,0,0,0,.72-.35.37.37,0,0,0,0-.18Z"/><path class="cls-1" d="M708.86,916.77,743.58,894a.52.52,0,0,1,.81.43V1097.1a.53.53,0,0,1-.53.52l-.11,0L709,1089.09a.51.51,0,0,1-.4-.51V917.2A.51.51,0,0,1,708.86,916.77Z"/><path class="cls-1" d="M918.36,1210.44s0,.09,0,.11a.06.06,0,0,1-.08,0,561.6,561.6,0,0,0-128.21-56.77q-9.49-2.85-30.47-8a506,506,0,0,0-80.07-12.49c-48.22-3.78-97.48-1.76-145.31,7.08q-11.64,2.14-17.77,3.42-15.15,3.15-38.32,9.93a492.93,492.93,0,0,0-96.44,39.55q-16.23,8.78-30.48,17.52a.19.19,0,0,1-.26-.08.2.2,0,0,1,0-.2,307.09,307.09,0,0,1,64.27-54.68,360.61,360.61,0,0,1,71.57-35.41,403.83,403.83,0,0,1,117-23.51,510.23,510.23,0,0,1,103.37,5A405.59,405.59,0,0,1,770,1117.06,363.34,363.34,0,0,1,881,1175.38a281.24,281.24,0,0,1,31.23,27.77A72.68,72.68,0,0,1,918.36,1210.44Z"/><rect class="cls-2" x="925.38" y="909.3" width="27.5" height="29.26" rx="0.5" transform="translate(-1.61 1.64) rotate(-0.1)"/><path d="M1583.72,913.05h23.43a.6.6,0,0,1,.6.59v46.07a.41.41,0,0,0,.41.41.39.39,0,0,0,.27-.1c5.29-4.5,11.47-8.29,18.89-8.35q15.26-.1,20,13.8a60.07,60.07,0,0,1,1.39,9.17,89.94,89.94,0,0,1,.4,9.21q0,40.26-.25,80.11a.64.64,0,0,1-.64.64h-23.41a.74.74,0,0,1-.74-.75q-.09-52.89,0-82.14c0-4.59.57-7.44-2.87-9.87-4.35-3.09-10.15-1.07-13.22,2.82a1.36,1.36,0,0,0-.29.84v88.44a.64.64,0,0,1-.64.63h-23.66a.54.54,0,0,1-.54-.54V913.89A.84.84,0,0,1,1583.72,913.05Z"/><path class="cls-2" d="M971.8,970h-10a.72.72,0,0,1-.72-.72V953a.54.54,0,0,1,.55-.54h10.16a.71.71,0,0,0,.7-.71h0V921.23a.6.6,0,0,1,.6-.6h24.28a.69.69,0,0,1,.68.68v30.37a.71.71,0,0,0,.71.71H1015a.5.5,0,0,1,.5.49h0v16.31a.79.79,0,0,1-.79.79h-16a.58.58,0,0,0-.58.58h0q.09,30-.06,62.56c0,3.5.29,8.16,2.06,11.09,2.6,4.3,11,3.26,15.43,2.89a.86.86,0,0,1,.93.8.17.17,0,0,1,0,.07v16.68a.94.94,0,0,1-.8.93c-16.8,2.46-39.7,3.06-42.53-19.32a67.53,67.53,0,0,1-.58-8.27q-.16-31.72,0-67.3a.72.72,0,0,0-.71-.72Z"/><path class="cls-2" d="M892.43,1032a.3.3,0,0,1,.3-.31H915a.85.85,0,0,1,.85.85v0a64.85,64.85,0,0,1-2.62,16c-5.69,19.3-29.86,20.69-45.19,14.51-7.1-2.86-11.84-8.73-14.49-15.51-6.2-15.89-5.77-32.2-5.37-50.59q.18-8.87,3.81-23.11a49.5,49.5,0,0,1,2.42-6.06c5.88-13.31,17.92-16.85,31.5-16.68,10.74.13,23.08,5.58,26.57,16.54a61.45,61.45,0,0,1,2.86,20.63.6.6,0,0,1-.59.58H892.83a.69.69,0,0,1-.69-.69v0c.17-5.5-.24-14.5-4.65-18.13-3.26-2.67-7.6-1.06-9.47,2.39a20.2,20.2,0,0,0-2.26,7,238.8,238.8,0,0,0-1.3,48.28c.44,6.26.91,20.3,9.06,21.5C892.09,1050.53,892.45,1037.51,892.43,1032Z"/><path d="M1184.43,1011.42a.26.26,0,0,0-.26.26,144.22,144.22,0,0,0,1,27.49,26.12,26.12,0,0,0,1.39,4.79,8.21,8.21,0,0,0,8.56,5.82c7-.24,8.82-7.74,9-13.36a.6.6,0,0,1,.62-.59h0l21.19,1.47a.53.53,0,0,1,.48.56v0a58.36,58.36,0,0,1-2.43,10.58c-5,14.83-18.18,17.56-32,17.21-22.27-.56-30.92-18.35-32.26-37.94a283.2,283.2,0,0,1-.44-31.5c.5-12.13,3.05-29.34,12.53-37.73,8.07-7.14,19.16-7.8,29.71-6.54,16,1.92,22.61,15.07,24.14,29.48a210.21,210.21,0,0,1,.93,29.39.6.6,0,0,1-.6.58Zm.07-14.72,18.08.38a.35.35,0,0,0,.35-.35h0l.3-14.25c.17-8.4-3.09-15.28-7.3-15.37h0l-3.54-.07c-4.21-.08-7.75,6.65-7.93,15l-.3,14.26a.34.34,0,0,0,.34.36Z"/><path d="M1231.69,1038.16a.32.32,0,0,1,.27-.37l20-3.2a.67.67,0,0,1,.76.5,51.68,51.68,0,0,0,2.89,9,9.47,9.47,0,0,0,14.94,3.06c4.08-3.71,3.58-11,1.52-15.72-2.71-6.18-11-12.44-16.57-16.55-9.49-7-19.32-15.59-21.36-28-1.46-8.85.46-20.83,7.25-27.05,8-7.31,15.78-8.5,26.43-8.22,15.13.38,26.42,11.23,27.79,26a.91.91,0,0,1-.75,1l-19,3a.62.62,0,0,1-.71-.52c-1-6.25-3.37-15.25-11.93-13.15q-5.89,1.44-6.43,8.5a16.17,16.17,0,0,0,4.43,12.56c6.29,6.95,14.54,12.93,21.25,18.45a62.38,62.38,0,0,1,7.59,8.1c7.09,8.64,8.46,19,5.57,29.95-3.52,13.3-16.36,20.26-29.58,20.13-6.56-.06-11.66-.37-16.76-2.85Q1234.16,1055.49,1231.69,1038.16Z"/><path d="M1328.38,1011.42a.26.26,0,0,0-.26.26,145.11,145.11,0,0,0,1,27.5,25.59,25.59,0,0,0,1.4,4.8,8.21,8.21,0,0,0,8.56,5.82c7-.24,8.83-7.75,9-13.37a.6.6,0,0,1,.62-.59h0l21.2,1.46a.53.53,0,0,1,.48.56v0a58.47,58.47,0,0,1-2.43,10.59c-5,14.84-18.18,17.58-32,17.23-22.29-.55-31-18.35-32.3-38a286,286,0,0,1-.45-31.52c.5-12.14,3-29.36,12.53-37.76,8.07-7.14,19.17-7.81,29.73-6.55,16,1.92,22.63,15.07,24.16,29.49a210.45,210.45,0,0,1,.94,29.41.6.6,0,0,1-.6.58Zm0-14.62,18.17.28a.31.31,0,0,0,.32-.3h0l.22-14.38c.13-8.45-3.23-15.35-7.5-15.43l-3.3-.05c-4.28-.07-7.86,6.73-8,15.18l-.23,14.38a.31.31,0,0,0,.3.32Z"/><path d="M1421.06,1053.12a.32.32,0,0,0-.38-.24.31.31,0,0,0-.19.12c-4.26,6.15-8.36,11.2-16.42,12.39-16,2.38-24.3-7.84-26.53-22.68a39.48,39.48,0,0,1,5.44-26.53c3.93-6.68,13.68-12.45,20.21-15.09q6.49-2.62,15.43-5.57a1,1,0,0,0,.66-.89q.21-14,.14-17.11c-.13-4.49-1.73-10.09-7.61-9.53q-4.65.45-5.73,5.85-.69,3.43-1.41,10.35a.54.54,0,0,1-.58.48l-22.95-1.59a.54.54,0,0,1-.5-.58h0c.52-7.46,2.61-16.24,8.14-21.69,8.67-8.57,19-10.26,30.77-9a26.69,26.69,0,0,1,21,15.76,32.26,32.26,0,0,1,2.77,11.75q.51,24.86.2,59.78a124.14,124.14,0,0,0,2.15,24.57.75.75,0,0,1-.61.88h-20.75a1.08,1.08,0,0,1-1.07-.87Zm-2.08-43.73a42,42,0,0,0-8,4.77q-12.95,9.5-8.55,26.42,2.46,9.5,11.81,5.51a9.48,9.48,0,0,0,5.2-5.79,2,2,0,0,0,.12-.69v-29.86a.4.4,0,0,0-.39-.39Z"/><path d="M1551.82,988.05c0-6.1-.39-12.92-3.75-17.73a2.22,2.22,0,0,0-.81-.71c-9.3-4.65-11.69,5.81-12.29,12.45a300.76,300.76,0,0,0-.32,51.18c.51,6.45,1.67,17.25,10.4,16.12,6.51-.85,6.77-12.19,6.82-17.44a.29.29,0,0,1,.29-.29h21.22a.92.92,0,0,1,.92.92v0c-.6,14.69-4.56,29.57-21.5,32.35-13.25,2.17-28.67.82-36.25-11.9-4.41-7.4-6.08-15.33-6.93-23.55a208.26,208.26,0,0,1-.57-37.77c.66-8.5,2.66-19.49,6.85-26.89,6.8-12,19.12-14.28,32-13.14,21.24,1.89,27.11,17.42,26.29,36.57a.59.59,0,0,1-.59.57h-21a.78.78,0,0,1-.78-.78Z"/><path d="M1155,974.09c-9.43-1.33-16.09-3.24-23.33,3.92a1.3,1.3,0,0,0-.38.93V1064a.59.59,0,0,1-.6.59h-23.89a.8.8,0,0,1-.81-.8V953.16a.46.46,0,0,1,.46-.46h22.09a.76.76,0,0,1,.75.64l1.26,7.87a.35.35,0,0,0,.41.3.33.33,0,0,0,.24-.16c5.59-9,13.92-10,24-9.07a.77.77,0,0,1,.7.76v20.23a.83.83,0,0,1-.83.83Z"/><path d="M1506.28,973.26a.83.83,0,0,1-.83.83h-.12c-9.42-1.33-16.08-3.23-23.31,3.93a1.3,1.3,0,0,0-.38.92l0,85a.59.59,0,0,1-.6.59h-23.87a.8.8,0,0,1-.81-.8l-.05-110.55a.46.46,0,0,1,.46-.46h22.08a.76.76,0,0,1,.75.64l1.26,7.86a.35.35,0,0,0,.41.3.33.33,0,0,0,.24-.16c5.58-9,13.9-10,24-9.07a.78.78,0,0,1,.7.75Z"/><rect class="cls-2" x="926.28" y="952.34" width="26.04" height="112.68" rx="0.44" transform="translate(-1.76 1.64) rotate(-0.1)"/><path class="cls-2" d="M1060.29,1031.35a.2.2,0,0,0,.4,0q2.73-20.68,7.13-46.68,3.32-19.57,5.37-31.87a.61.61,0,0,1,.6-.51h23.54a.44.44,0,0,1,.44.45v.08q-2,10.21-3.33,15.8-7.8,33.39-13.1,59c-3.35,16.24-7.07,30.94-10.63,47.2a56.72,56.72,0,0,1-4,10.28c-7.94,17-28,17.74-43.67,14.14a.33.33,0,0,1-.27-.38l2.37-18a.36.36,0,0,1,.4-.31l.14,0c1.35.82,7.3,1.9,8.91,1.93q12.5.24,14-12.79.27-2.45-1-9c-2-10-5-19.82-7.88-32.27q-1.68-7.2-5.92-23.81-6-23.48-13.11-52a.38.38,0,0,1,.27-.46H1047a.82.82,0,0,1,.8.69Z"/><path class="cls-2" d="M1048.15,1154.62c.13-14.9,13.24-26.86,29.29-26.72h0c16,.14,29,12.33,28.83,27.23S1093,1182,1077,1181.84h0C1060.92,1181.7,1048,1169.51,1048.15,1154.62Zm13.67-4.6a16.1,16.1,0,1,0,20.13-10.28h0A16,16,0,0,0,1061.82,1150Z"/><path class="cls-2" d="M1292.71,1154.69c.1-14.87,13.17-26.84,29.19-26.73s28.91,12.26,28.81,27.13-13.17,26.84-29.19,26.73S1292.6,1169.56,1292.71,1154.69Zm13.14-2.5a16,16,0,0,0,13.25,18.34h0a16,16,0,0,0,18.54-13h0a16,16,0,0,0-13.25-18.34h0a16,16,0,0,0-18.54,13Z"/><path class="cls-2" d="M1423.72,1166.25c6.37,4.37,16.7,7.51,23.91,4,2.58-1.26,2.7-4.62.91-6.5a9.9,9.9,0,0,0-4.46-2.25c-8.34-2.39-22.1-2.32-24.49-14-1.87-9.22,4.2-16.36,12.88-18.36a37.92,37.92,0,0,1,27.22,3.45,1.12,1.12,0,0,1,.46,1.5l0,0-4.36,7.56a1,1,0,0,1-1.4.38h0c-5.09-2.91-15.36-5.7-20.54-1.86-2.27,1.68-2.73,4.39-.65,6.44.82.81,2.52,1.52,5.09,2.11,9,2.07,22,3.4,23.85,14.34,1.6,9.46-4.88,16-13.6,17.76q-16.3,3.32-30-5a.9.9,0,0,1-.31-1.21l4.73-8.2a.55.55,0,0,1,.74-.19Z"/><path class="cls-2" d="M1604.67,1154.93c.15,16.36,19.37,20,29.41,10a1.08,1.08,0,0,1,1.51,0l6.85,6.85a.52.52,0,0,1,0,.71c-11.86,13.26-35.61,12.1-46-2.3a26.68,26.68,0,0,1-.29-30.43c10.08-14.59,33.81-16.2,45.91-3.16a.51.51,0,0,1,0,.71l-6.72,7a1.06,1.06,0,0,1-1.51,0C1623.66,1134.59,1604.52,1138.56,1604.67,1154.93Z"/><path class="cls-2" d="M1003.46,1166.31c6.36,4.38,16.69,7.54,23.9,4,2.58-1.25,2.71-4.61.92-6.5a9.8,9.8,0,0,0-4.45-2.25c-8.33-2.41-22.09-2.37-24.46-14-1.85-9.22,4.23-16.35,12.91-18.33a37.89,37.89,0,0,1,27.21,3.5,1.12,1.12,0,0,1,.46,1.5l0,0-4.37,7.55a1,1,0,0,1-1.4.38h0c-5.09-2.92-15.35-5.73-20.54-1.9-2.27,1.67-2.74,4.38-.66,6.44.82.81,2.52,1.52,5.08,2.12,9,2.08,22,3.44,23.82,14.38,1.59,9.46-4.91,16-13.63,17.73q-16.31,3.28-30-5.06a.9.9,0,0,1-.3-1.21l4.74-8.19a.55.55,0,0,1,.74-.18Z"/><path class="cls-2" d="M1116.4,1128.63h11.45a.62.62,0,0,1,.61.62l-.1,40.37a.65.65,0,0,0,.65.66h0l24.92.12a.86.86,0,0,1,.85.86l-.06,9.29a.57.57,0,0,1-.57.56l-37.94-.13a.58.58,0,0,1-.59-.58l.18-51.17A.6.6,0,0,1,1116.4,1128.63Z"/><path class="cls-2" d="M1185.27,1170.71c8.46,0,11.35-6.1,11.32-13.46q-.09-21,0-28a.59.59,0,0,1,.59-.59h11.27a.64.64,0,0,1,.64.63h0q0,15.48,0,28.72c0,15.37-8.25,23.66-23.79,23.64s-23.74-8.31-23.74-23.68q0-13.25.06-28.72a.63.63,0,0,1,.64-.63h0l11.27,0a.6.6,0,0,1,.59.59q0,7-.1,28C1173.93,1164.59,1176.82,1170.71,1185.27,1170.71Z"/><path class="cls-2" d="M1239.07,1128.6q20.28,0,22.54,0a.76.76,0,0,1,.74.75v9.53a.56.56,0,0,1-.56.56H1246a.61.61,0,0,0-.61.61l-.18,40.55a.38.38,0,0,1-.34.38c-.26,0-2.21,0-5.84,0s-5.59,0-5.85-.06a.38.38,0,0,1-.33-.38l-.14-40.55a.61.61,0,0,0-.61-.61h-15.77a.56.56,0,0,1-.56-.56v-9.53a.75.75,0,0,1,.74-.76Q1218.79,1128.59,1239.07,1128.6Z"/><rect class="cls-2" x="1270.14" y="1128.61" width="12.74" height="52.44" rx="0.72" transform="translate(-2.01 2.23) rotate(-0.1)"/><path class="cls-2" d="M1389.21,1150.88q3.09,3.69,6.89,8.11a.24.24,0,0,0,.34,0,.23.23,0,0,0,.08-.18v-29.67a.5.5,0,0,1,.49-.5h11.42a.72.72,0,0,1,.72.72h0v51.24a.47.47,0,0,1-.47.47h-9.19a2.17,2.17,0,0,1-1.7-.82q-9.49-11.8-17.55-21.39-3.1-3.68-6.9-8.11a.25.25,0,0,0-.34,0,.24.24,0,0,0-.07.16v29.67a.49.49,0,0,1-.49.5H1361a.72.72,0,0,1-.72-.72h0v-51.24a.47.47,0,0,1,.47-.47H1370a2.18,2.18,0,0,1,1.7.82Q1381.14,1141.29,1389.21,1150.88Z"/><path class="cls-2" d="M1561.42,1170.37h25.15a.67.67,0,0,1,.67.67h0v9.41a.67.67,0,0,1-.67.67h-37.86a.67.67,0,0,1-.67-.67h0V1129.3a.67.67,0,0,1,.67-.67h11.37a.67.67,0,0,1,.67.67h0v40.4A.67.67,0,0,0,1561.42,1170.37Z"/><path class="cls-2" d="M1500.93,1128.7l11.46,0a.62.62,0,0,1,.62.61l.08,40.42a.65.65,0,0,0,.65.66h25a.87.87,0,0,1,.86.86l0,9.3a.57.57,0,0,1-.57.56l-38,0a.58.58,0,0,1-.59-.58l0-51.24A.61.61,0,0,1,1500.93,1128.7Z"/></svg>