<svg id="Layer_1" data-name="Layer 1" xmlns="http://www.w3.org/2000/svg" viewBox="340 830 1300 360"><defs><style>.cls-1{fill:#e8eef4;}.cls-2{fill:#32b7e6;}.cls-3{fill:#a3b3c4;}</style></defs><path class="cls-1" d="M380.55,1048.68a.29.29,0,0,1-.13-.55q6.66-3.35,19.43-10.62,5.82-3.33,16.45-8.79c34.5-17.42,72.65-4.28,85.8,1.31q14.52,6.17,24.06,9.87c29.58,10.08,60.92-1.07,74.61-10.88,2.54-1.82,20-15.33,26.31-36.7,4.43-12.31,4.81-25.65,2.47-38.3-4.53-24.58-22.66-44.84-45.22-54.84a.32.32,0,0,1-.17-.39l.1-.33a.14.14,0,0,1,.18-.1,95.33,95.33,0,0,1,14.68,6.11,62.5,62.5,0,0,1,20.15,15.6c6.68,7.79,11.23,13.31,15,22a79.75,79.75,0,0,1-.8,67,59.46,59.46,0,0,1-4.94,8.69c-2.77,3.83-5.58,8.07-9.18,11.48A82.36,82.36,0,0,1,602,1042.14c-8.49,4.54-20,8.72-31.48,8.53C536,1051.65,413.79,1048.61,380.55,1048.68Z"/><path class="cls-2" d="M556.62,901.85a67.26,67.26,0,0,1,55.86,30.72q14.24,21.57,9.6,48.19a66,66,0,0,1-20.13,37.4c-12.45,11.82-30.08,17.94-47.1,17.72s-34.48-6.81-46.61-19A65.92,65.92,0,0,1,489.1,979q-3.94-26.73,10.86-47.92A67.31,67.31,0,0,1,556.62,901.85Z"/><path class="cls-1" d="M625.65,918.43a.35.35,0,0,1,.06-.49.34.34,0,0,1,.42,0,67.43,67.43,0,0,1,14.33,14.63,103.67,103.67,0,0,1,9.09,15.79c4.6,9.68,7.8,21.45,6.23,32.13-.49,3.3-1,6.79-1.5,10.45-1.4,9.94-4.48,18.76-8.47,27.75q-.69,1.53-7.14,11.79c-2.53,4-6,7.09-8.82,10.75a10.11,10.11,0,0,1-2,1.93c-3.13,2.25-5.76,5.2-9,7.4a88.4,88.4,0,0,1-33.49,14.2q-7.86,1.53-27.67,1.48-63.42-.15-129.37-.15-17.6,0-38.5-.45a32.39,32.39,0,0,0-4.1.16.57.57,0,0,1-.62-.52v-.09l0-.29a.22.22,0,0,1,.17-.21,193.72,193.72,0,0,0,19.71-7,20.78,20.78,0,0,1,8.06-1.55q84.57-.3,158.5.3c8.46.07,18.59-3,26.13-5.56,16.28-5.52,31.57-20.93,39.35-35.61a118.34,118.34,0,0,0,6.72-15.89,65.13,65.13,0,0,0,3.57-16.84A88.64,88.64,0,0,0,646,958a80.85,80.85,0,0,0-7.93-20.93A117.48,117.48,0,0,0,625.65,918.43Z"/><ellipse class="cls-1" cx="1068.7" cy="943.35" rx="8.54" ry="7.8" transform="translate(-82.57 102.75) rotate(-5.3)"/><path class="cls-1" d="M384.57,1101q6.66-2.6,29.36-11.29c1.23-.48,4.12-.71,8.68-.71q48.48,0,151.57-.1,6.23,0,17.43-2.63a123.33,123.33,0,0,0,29.21-11q1.3-.69,9-6.12a73,73,0,0,0,8.53-6.76,105.14,105.14,0,0,0,13.35-15.56c2.63-3.83,4.13-7.72,6.56-11.94a52.16,52.16,0,0,0,2.28-5,86.33,86.33,0,0,0,6.79-34,40.48,40.48,0,0,0-.74-7.69c-.64-3.27-.73-6.58-1.71-10.16-2-7.2-3.18-13.8-6-20.5Q655,948.46,652,942.64a34.83,34.83,0,0,0-3.58-5.68.36.36,0,0,1,.06-.51.36.36,0,0,1,.17-.07s.18.13.42.4q13.44,15.22,20.18,38.11a123.86,123.86,0,0,1,4.34,19.65A95.92,95.92,0,0,1,662.84,1050,108.35,108.35,0,0,1,646,1072.61a84.43,84.43,0,0,1-22.58,16.83,111.79,111.79,0,0,1-31.9,10.87q-7.18,1.26-22.81,1.22-68.25-.19-137.31-.15-31.17,0-46.65.27a.37.37,0,0,1-.36-.37A.35.35,0,0,1,384.57,1101Z"/><path class="cls-1" d="M1470.08,966.42a.19.19,0,0,0,.2.18.22.22,0,0,0,.13-.06q7.13-8.49,17.57-8.39a18.62,18.62,0,0,1,12,4c4.56,3.73,5.46,9.49,5.42,15.67q-.09,12.72,0,35.55a.38.38,0,0,1-.37.37h-8a.29.29,0,0,1-.29-.29q.06-19.89-.08-35.28c-.06-7.25-3.11-12.13-10.83-12.52-8.3-.41-15.81,5.17-15.79,14q.06,22,0,33.83a.39.39,0,0,1-.38.37h-7.92a.3.3,0,0,1-.3-.31h0V937.09a.25.25,0,0,1,.24-.25h8.15a.25.25,0,0,1,.24.25Z"/><rect class="cls-1" x="1373.39" y="938.18" width="10.8" height="10.34" rx="4.72" transform="translate(-89.67 146.73) rotate(-5.9)"/><rect class="cls-1" x="1236.7" y="940.02" width="9.14" height="73.78" rx="0.59"/><path class="cls-1" d="M722.28,940.05q24.39,0,29.83.17a27.83,27.83,0,0,1,15.5,5c7.69,5.39,9.87,12.88,9.18,22.08A20.58,20.58,0,0,1,773,977.81c-8.23,11.59-20.61,10.2-35.62,10.33a.55.55,0,0,0-.54.55v24.47a.54.54,0,0,1-.54.53h-14a.56.56,0,0,1-.56-.55h0V940.63a.58.58,0,0,1,.58-.58Zm14.56,13-.08,22.14a.22.22,0,0,0,.22.22h0l12.85,0a11.17,11.17,0,0,0,11.45-10.85h0v-.8a11.15,11.15,0,0,0-11.37-10.93l-12.85,0a.22.22,0,0,0-.22.22Z"/><path class="cls-1" d="M1514.93,959.42h7.76a.58.58,0,0,0,.58-.58h0V945.58a.44.44,0,0,1,.44-.44H1531a.52.52,0,0,1,.53.52v13.25a.47.47,0,0,0,.47.47h10.25a.49.49,0,0,1,.49.49v5.42a.69.69,0,0,1-.68.68h-9.88a.48.48,0,0,0-.48.47q-.23,31-.14,35c.12,6.88,6.86,5.76,11.14,4.43a.19.19,0,0,1,.25.13s0,0,0,.06v7a.32.32,0,0,1-.22.29c-8.92,2.68-19.26,2-19.41-10q-.25-21.54,0-36.84a.61.61,0,0,0-.61-.61H1515a.42.42,0,0,1-.42-.42h0v-5.72A.36.36,0,0,1,1514.93,959.42Z"/><path class="cls-1" d="M833.71,1004.06a.51.51,0,0,1,0,.62c-6.12,8.56-16.69,11-26.7,10.17-19.66-1.56-25.89-18.29-23.13-35.59,3-18.47,24-26.63,39.3-17.82,10.54,6.06,13,17.14,12.1,28.44a.48.48,0,0,1-.48.44H798.76a.6.6,0,0,0-.61.6V991q.79,9.62,8.45,11.95a14.19,14.19,0,0,0,16.11-5.56,1.16,1.16,0,0,1,1-.52C826.82,996.81,831.77,1001.73,833.71,1004.06Zm-35-23,22.06,0a.22.22,0,0,0,.22-.22v-.62A11.24,11.24,0,0,0,809.81,969h-.14a11.24,11.24,0,0,0-11.2,11.28v.62a.22.22,0,0,0,.22.22Z"/><path class="cls-1" d="M979.23,1008.27a.34.34,0,0,0-.39-.28.3.3,0,0,0-.21.12c-8.85,11-31.65,9.17-33.84-7.3q-1.47-11,8.56-16.53,2.28-1.26,8.83-2.66,2.69-.57,15.8-1.39a.58.58,0,0,0,.54-.55c.34-6.42-1.46-10.72-8.64-10.73q-7.29,0-10.14,5.8a1.12,1.12,0,0,1-1.07.61l-8.78-.7a.93.93,0,0,1-.84-.78l-.84-5.34a1.55,1.55,0,0,1,.43-1.34q11.85-12.13,29.08-8.29c9.22,2.06,15.35,7.94,15.51,17.85q.24,14.38.19,36.62a.35.35,0,0,1-.35.35H980.74a.77.77,0,0,1-.76-.65ZM978,989.12c-5.87.18-21.48,0-18.32,10.64a5,5,0,0,0,3.05,3.19c4.9,2.07,11.25.66,14.29-3.88q2.35-3.54,1.63-9.39A.63.63,0,0,0,978,989.12Z"/><path class="cls-1" d="M1003.09,1004a.37.37,0,0,1,0-.51q2-1.74,5.82-5.15a6.93,6.93,0,0,1,4-1.89,1.12,1.12,0,0,1,1,.48q5.58,7.95,15.89,6.79c8.09-.91,8.38-8.39.77-10.58-9.5-2.73-23.86-3.54-25.45-16.43a15.44,15.44,0,0,1,6-14c10.73-7.64,29.63-6.13,37.74,4.68a.75.75,0,0,1,0,.94,29.44,29.44,0,0,1-8.56,6.65,1.91,1.91,0,0,1-2.43-.6q-4.73-6.78-13.07-5.43c-3.81.61-6.66,3.75-4.31,7.52a2.43,2.43,0,0,0,.77.76c5.63,3.34,12.73,4,17.7,5.59,10.06,3.15,15,12.66,10,22.32-5.65,10.91-21.78,11.14-31.88,8.54A25.12,25.12,0,0,1,1003.09,1004Z"/><path class="cls-1" d="M1194.83,1004a.51.51,0,0,1,0,.62c-6.11,8.56-16.67,11-26.67,10.19-19.65-1.54-25.89-18.26-23.15-35.55,2.93-18.46,24-26.63,39.26-17.84,10.54,6.05,13,17.12,12.11,28.41a.49.49,0,0,1-.47.44l-36,0a.6.6,0,0,0-.61.6V991q.81,9.62,8.46,11.94a14.18,14.18,0,0,0,16.09-5.57,1.16,1.16,0,0,1,1-.52C1187.94,996.76,1192.89,1001.68,1194.83,1004Zm-35-22.83,22.26.08a.29.29,0,0,0,.29-.29h0v-.49a11.42,11.42,0,0,0-22.84-.08h0v.49A.29.29,0,0,0,1159.84,981.17Z"/><path class="cls-1" d="M1436.37,1006.54a.3.3,0,0,0-.33-.25.28.28,0,0,0-.19.12,18.12,18.12,0,0,1-12.31,7.51c-25.66,4.1-31.42-25-24.09-42.75a21.55,21.55,0,0,1,21.32-13.09q9.18.3,15.47,8.1a.36.36,0,0,0,.63-.23v-6a.6.6,0,0,1,.61-.6h7a.75.75,0,0,1,.74.74q0,11.67-.14,46.85,0,8.85-.24,10.14c-1.31,8.37-6.21,15.38-14.64,17.77-11.88,3.36-23.75,1.75-31.69-8.32a.84.84,0,0,1,.11-1.17l4.94-4.21a.52.52,0,0,1,.74.07l0,0q7.55,10.44,20.37,7.61C1435.3,1026.5,1437.54,1015.85,1436.37,1006.54Zm-30.56-20.13a34.32,34.32,0,0,0,2,11.58c4.14,11.21,19,11.44,25.8,3.12q2.85-3.47,2.92-5.24c0-.62,0-3.9-.07-9.82s-.13-9.2-.16-9.82q-.12-1.79-3-5.17c-7-8.15-21.85-7.58-25.73,3.73A34.37,34.37,0,0,0,1405.81,986.41Z"/><path class="cls-1" d="M860.9,967.3a.34.34,0,0,0,.35.33.36.36,0,0,0,.3-.2A15.33,15.33,0,0,1,879,958.54a.73.73,0,0,1,.57.72v12.55a.65.65,0,0,1-.64.65h-.13c-4.8-1-13.37-.27-15.81,4.84a16.46,16.46,0,0,0-1.87,6.48q-.12,5-.05,29.44a.61.61,0,0,1-.6.61H846.94a.57.57,0,0,1-.57-.57v-53.6a.53.53,0,0,1,.54-.53h12.46a1.53,1.53,0,0,1,1.53,1.53Z"/><path class="cls-1" d="M1271,966.61a.21.21,0,0,0,.21.2.24.24,0,0,0,.16-.07q7.11-9,18-8.6c10.37.33,16.74,6.75,16.92,17q.21,12.27-.09,38.12a.47.47,0,0,1-.47.47h-7.57a.45.45,0,0,1-.44-.45q0-26.37-.12-35.73a28.36,28.36,0,0,0-.86-4.62c-2.31-9.57-14.74-8.59-20.65-3.86-3.82,3.06-4.87,6.12-4.83,11.34q.06,8.52-.23,33a.44.44,0,0,1-.43.44h-7.65a.52.52,0,0,1-.52-.53h0V959.6a.3.3,0,0,1,.31-.3h8a.29.29,0,0,1,.29.29Z"/><path class="cls-1" d="M1318.08,1004.35a.64.64,0,0,1,.12-.85l5.62-4.79a.54.54,0,0,1,.77.06l0,.06q6.49,10.08,19.07,8.5c11.55-1.46,12.5-13,1.31-16-8.64-2.29-23.9-4.68-25-15.56a13.57,13.57,0,0,1,4.7-12.24c5.91-5.19,12.28-6.13,19.89-5,4.89.72,11.94,4.27,14.64,9a1.81,1.81,0,0,1-.65,2.47h0l-4.48,2.59a1.33,1.33,0,0,1-1.82-.49,1.59,1.59,0,0,1-.12-.27q-1.57-5-8.38-6.23a22.69,22.69,0,0,0-8.09,0c-3.77.66-7.79,4.09-7,8.16.86,4.57,4.3,6.25,8.65,7.23,7.48,1.69,20.21,4.44,23.1,11.56,3.93,9.68-2.11,18.94-11.93,21.15C1337.08,1016.28,1324.83,1014.3,1318.08,1004.35Z"/><path class="cls-1" d="M1584.12,971.75a10.2,10.2,0,0,0-3.4-4.11c-4.61-2.91-12.93-3.8-17.47.14a6.85,6.85,0,0,0-2.61,4.62c-.41,4.52,2.69,6.7,6.67,8,5.12,1.62,12.61,3.1,18.73,6.21a12.65,12.65,0,0,1,7.32,10.18c1.14,9.07-5.79,15.9-14.25,17.47-10.34,1.91-22.64-.14-28.49-9.7a.91.91,0,0,1,.19-1.16L1556,999a.68.68,0,0,1,1,.07.86.86,0,0,1,.1.16c3.94,8.55,15.31,10.42,23.17,6.71,4.63-2.19,6.33-7.87,2.3-11.63a14.37,14.37,0,0,0-6.09-3.07c-7.62-2.09-17.3-3.38-22.23-10.12-3.2-4.38-2.64-11.77.34-15.61,6.42-8.27,19.19-8.87,28.51-4.84a21.52,21.52,0,0,1,8.13,6.62,1.72,1.72,0,0,1-.27,2.43l-.18.13-4.26,2.61a1.64,1.64,0,0,1-2.26-.56Z"/><path class="cls-1" d="M912.09,998.17a.38.38,0,0,0,.49.25.4.4,0,0,0,.25-.24L925,959.57a.6.6,0,0,1,.57-.43h14.13a.71.71,0,0,1,.71.71.8.8,0,0,1-.05.26L919.9,1013.3a.8.8,0,0,1-.74.5h-14a1,1,0,0,1-.93-.64l-20-53.49a.4.4,0,0,1,.24-.51.27.27,0,0,1,.13,0h14.64a.9.9,0,0,1,.86.63Z"/><path class="cls-1" d="M1112.81,999c.36-.37.91-3.66,1.34-5.11q5.26-17.74,10.91-34.32a.74.74,0,0,1,.72-.51h14.3a.48.48,0,0,1,.48.47.51.51,0,0,1,0,.17l-20.63,53.52a.65.65,0,0,1-.59.41H1104.8a.42.42,0,0,1-.41-.28l-20-53.44a.45.45,0,0,1,.27-.59.41.41,0,0,1,.16,0h14.72a.7.7,0,0,1,.67.49q3.75,11.93,9.3,29a98,98,0,0,1,2.71,10,.36.36,0,0,0,.42.28A.44.44,0,0,0,1112.81,999Z"/><rect class="cls-1" x="1374.47" y="959.12" width="8.62" height="54.76" rx="0.62"/><rect class="cls-1" x="1061.42" y="959.44" width="14.5" height="54.34" rx="0.46"/><path class="cls-1" d="M660,983.1a.22.22,0,0,1,.24-.2.21.21,0,0,1,.12.05,3.18,3.18,0,0,1,1.12,2q2.82,16.41-1.16,29.51c-2.42,8-4.36,15.62-8.75,22.3q-3.49,5.31-5.19,7.61a92.59,92.59,0,0,1-24.76,23.31q-.8.49-8.88,4.85c-8.65,4.65-19.55,7.61-28.6,8.94a150.91,150.91,0,0,1-20,1q-54,.12-138.52-.09c-9.21,0-22.64-.85-36.28-.22a1.07,1.07,0,0,1-1-.58v0a.52.52,0,0,1,.24-.7l.13,0c7-1.32,14.24-4.45,20.54-7.36a6.93,6.93,0,0,1,2.94-.65q69.48-.33,152.72,0a88.87,88.87,0,0,0,14.45-.81q5.77-1,14.14-3.13a81,81,0,0,0,29.3-14.23,78.08,78.08,0,0,0,13.57-12.46q2.64-3.27,5.75-7.41a60.91,60.91,0,0,0,5.1-7.89A111.58,111.58,0,0,0,660,983.1Z"/><path class="cls-1" d="M1604.54,952.88v1.67h-3.32v10.81h-2V954.55h-3.34v-1.67Z"/><path class="cls-1" d="M1619.74,952.88v12.48h-2v-8.55l-3.81,8.55h-1.42l-3.82-8.55v8.55h-2.05V952.88h2.21l4.38,9.78,4.36-9.78Z"/><path class="cls-3" d="M817.18,1072.27c-1.11,5.92-7,8.3-12.26,8-5.76-.3-9.63-4.26-10.34-10.6-.74-6.56.49-11,3.9-14.14a9.6,9.6,0,0,1,5.56-2.28,21.4,21.4,0,0,1,2.44-.15,11.87,11.87,0,0,1,6.91,2.05c1.76,1.14,3.24,4.41,3.62,5.43l-4.17.94a.27.27,0,0,1-.31-.18,5.72,5.72,0,0,0-3.14-4,7.84,7.84,0,0,0-5.1-.59c-3.14.67-4.79,3.11-5,7.48-.18,3-.27,6.39.92,9.27s5.18,3.75,8.18,2.85a5.47,5.47,0,0,0,3.53-3,4.59,4.59,0,0,0,.33-1,5,5,0,0,1,.3-1,.24.24,0,0,1,.26-.15l4.09.51A.4.4,0,0,1,817.18,1072.27Z"/><path class="cls-3" d="M992.94,1074c-.47,2.76-2.2,4.57-5.28,5.53-6.15,1.93-13.81.45-15.92-6.11a.16.16,0,0,1,.12-.2l4.24-1h0a.09.09,0,0,1,.09.07,5,5,0,0,0,3.45,3.92,9.8,9.8,0,0,0,6.7-.07,3.32,3.32,0,0,0,1.2-5.57,6.77,6.77,0,0,0-2.74-1.38c-.56-.18-1.13-.35-1.7-.51-3.89-1.17-7.58-2.27-9.25-4.94a6.44,6.44,0,0,1-.65-5.39,6.62,6.62,0,0,1,3.78-4.17,15,15,0,0,1,8.07-.94,9.76,9.76,0,0,1,4.7,1.86,9.22,9.22,0,0,1,2.91,4,.25.25,0,0,1-.17.33l-3.74.84a.35.35,0,0,1-.41-.24c-1.1-3.26-5.07-4.21-8.27-3.25a3.53,3.53,0,0,0-2.42,2.29,3.34,3.34,0,0,0,.67,3.11,6.34,6.34,0,0,0,3,1.68c3.07,1,5.37,1.76,6.85,2.31C991.73,1067.53,993.54,1070.53,992.94,1074Z"/><path class="cls-3" d="M1096.9,1063.8a29.32,29.32,0,0,0,0,6.29c.36,2.71,1,4.62,3.4,5.68a8.49,8.49,0,0,0,5.36.7,5.12,5.12,0,0,0,4.37-4.88.13.13,0,0,1,.13-.09l4.18.52a.36.36,0,0,1,.24.13.41.41,0,0,1,.07.3c-1.28,5.07-5.5,7.89-11.64,7.79a10.48,10.48,0,0,1-9.3-5.35c-1.66-2.8-1.75-6.62-1.7-10a12.86,12.86,0,0,1,3-8.33c1.94-2.34,5.49-3.44,8.94-3.44a12.43,12.43,0,0,1,7,1.88,10.46,10.46,0,0,1,3.78,5.57,0,0,0,0,1,0,.05l-4.25.95a.18.18,0,0,1-.21-.13c-.82-3.1-3-4.71-6.36-4.77h-.22C1099.55,1056.68,1097.36,1059,1096.9,1063.8Z"/><path class="cls-3" d="M1191.24,1074.06c-.49,2.75-2.22,4.56-5.31,5.5-6.15,1.89-13.81.36-15.87-6.19a.17.17,0,0,1,.11-.22l4.25-.92h0a.1.1,0,0,1,.09.07,5,5,0,0,0,3.43,3.93,9.78,9.78,0,0,0,6.69,0,3.41,3.41,0,0,0,2.19-2.46,3.36,3.36,0,0,0-1-3.1,6.64,6.64,0,0,0-2.73-1.4l-1.68-.52c-3.89-1.19-7.57-2.3-9.24-5a6.4,6.4,0,0,1-.61-5.38,6.67,6.67,0,0,1,3.79-4.16,15.22,15.22,0,0,1,8.07-.9,9,9,0,0,1,7.58,5.9.26.26,0,0,1-.17.33l-3.74.81a.33.33,0,0,1-.4-.23c-1.09-3.26-5-4.24-8.26-3.3a3.53,3.53,0,0,0-2.43,2.28,3.31,3.31,0,0,0,.66,3.11,6.25,6.25,0,0,0,3,1.69c3.06,1,5.35,1.78,6.83,2.35C1190.06,1067.59,1191.85,1070.59,1191.24,1074.06Z"/><path class="cls-3" d="M1223.29,1066.51a21.18,21.18,0,0,0-.48-4.74c-1.49-5.67-5.34-8.65-11.13-8.65h-.26c-5.94.1-9.79,3.21-11.12,9a21.65,21.65,0,0,0-.33,4.75,21.11,21.11,0,0,0,.48,4.74c1.51,5.75,5.44,8.75,11.39,8.65s9.79-3.21,11.12-9A21.24,21.24,0,0,0,1223.29,1066.51Zm-5.62,6.51a6.79,6.79,0,0,1-12.09,0,22.14,22.14,0,0,1,0-12.7,6.78,6.78,0,0,1,12.1,0,22,22,0,0,1,0,12.7Z"/><path class="cls-3" d="M1358.06,1061.87c-1.45-5.72-5.32-8.74-11.19-8.74h-.13c-5.94,0-9.81,3.12-11.18,8.9a20.14,20.14,0,0,0-.38,4.76,21,21,0,0,0,.44,4.74c1.45,5.72,5.32,8.74,11.19,8.74h.13c6,0,9.81-3.12,11.19-8.9a21.85,21.85,0,0,0,.38-4.75A21,21,0,0,0,1358.06,1061.87Zm-4.25,4.92c0,2.47-.07,4.25-1,6.36a6.32,6.32,0,0,1-6,3.65h-.12a6.37,6.37,0,0,1-6-3.82,14.47,14.47,0,0,1-.86-6.39,14.65,14.65,0,0,1,1-6.36,6.8,6.8,0,0,1,12.14.17A14.6,14.6,0,0,1,1353.81,1066.79Z"/><path class="cls-3" d="M1421.38,1074c-.48,2.76-2.21,4.57-5.29,5.52-6.15,1.93-13.82.43-15.91-6.13a.17.17,0,0,1,0-.12.19.19,0,0,1,.11-.08l4.25-1h0a.1.1,0,0,1,.09.07,5,5,0,0,0,3.45,3.92,9.78,9.78,0,0,0,6.69-.06,3.39,3.39,0,0,0,2.18-2.47,3.33,3.33,0,0,0-1-3.1,6.72,6.72,0,0,0-2.73-1.38l-1.7-.52c-3.89-1.17-7.57-2.27-9.25-4.94a6.39,6.39,0,0,1-.62-5.39,6.59,6.59,0,0,1,3.76-4.17,15.32,15.32,0,0,1,8.07-.94,9,9,0,0,1,7.61,5.87.26.26,0,0,1-.18.33l-3.73.83a.35.35,0,0,1-.42-.23c-1.08-3.26-5-4.22-8.26-3.27a3.57,3.57,0,0,0-2.42,2.29,3.33,3.33,0,0,0,.68,3.12,6.39,6.39,0,0,0,3,1.67c3.08,1,5.38,1.77,6.84,2.32C1420.18,1067.55,1422,1070.54,1421.38,1074Z"/><path class="cls-3" d="M862.38,1053.52v3.42a.06.06,0,0,1-.06.06h-8.17a.53.53,0,0,0-.53.53v22.26a.06.06,0,0,1-.06,0h-4.29a.06.06,0,0,1-.06,0v-22.2a.52.52,0,0,0-.53-.52h-7.94a.06.06,0,0,1,0-.06v-3.49a.06.06,0,0,1,0-.06h21.58A.06.06,0,0,1,862.38,1053.52Z"/><path class="cls-3" d="M1021.5,1076.53v3.18a.21.21,0,0,1-.21.21h-18.08a.21.21,0,0,1-.22-.21v-26.08a.21.21,0,0,1,.22-.2H1021a.21.21,0,0,1,.21.2v3.16a.21.21,0,0,1-.21.21h-12.9a.68.68,0,0,0-.68.69V1064a.67.67,0,0,0,.68.67h11.13a.21.21,0,0,1,.21.21v3a.21.21,0,0,1-.21.21h-11a.69.69,0,0,0-.68.69v6.88a.68.68,0,0,0,.68.68h13A.22.22,0,0,1,1021.5,1076.53Z"/><path class="cls-3" d="M1280.37,1070.92c-.12,5.82-4.06,9.3-10.55,9.3h0c-6.5,0-10.45-3.51-10.57-9.34-.08-4.54-.07-10.38,0-17.38a.15.15,0,0,1,.14-.13l4.24,0a.16.16,0,0,1,.16.15c0,3,0,8.31,0,16,0,2.36,0,4.8,1.93,6.08a7.36,7.36,0,0,0,4.08,1.22h0a7.38,7.38,0,0,0,4.07-1.21c2-1.27,2-3.71,2-6.13,0-7.58,0-12.92.06-15.89a.16.16,0,0,1,.16-.15h4.24a.13.13,0,0,1,.13.13C1280.49,1060.54,1280.47,1066.39,1280.37,1070.92Z"/><path class="cls-3" d="M740.1,1068.09a5.8,5.8,0,0,0-1.61-1.11l-.7-.4a.63.63,0,0,1-.17-.19.49.49,0,0,1,.22-.66,5.52,5.52,0,0,0,3.18-6.26c-.77-5.44-6.86-5.89-8.71-5.9-3,0-6.5-.07-10.47-.14a.13.13,0,0,0-.14.14v26.17a.1.1,0,0,0,.1.11c6.62,0,10.31,0,11.26,0a12.9,12.9,0,0,0,3.75-.66,6.52,6.52,0,0,0,4.94-5.78A6.36,6.36,0,0,0,740.1,1068.09Zm-13.42-11.16,5.6,0h0a4.12,4.12,0,0,1,4.29,3.85v.2a3.73,3.73,0,0,1-1.26,2.77,4.46,4.46,0,0,1-3,1.15l-5.61,0a.56.56,0,0,1-.56-.57l-.06-6.84A.58.58,0,0,1,726.68,1056.93Zm10.63,15.42a4.17,4.17,0,0,1-4.31,4l-6.4,0a.47.47,0,0,1-.47-.46l0-7.52a.47.47,0,0,1,.47-.46l6.4,0h0a4.18,4.18,0,0,1,4.33,4Z"/><path class="cls-3" d="M772.59,1053.53,763,1069.72a.61.61,0,0,0-.1.36l0,9.66a.1.1,0,0,1-.09.11c-.1,0-.51,0-2.1,0s-2,0-2.11-.05a.12.12,0,0,1-.1-.12l0-9.65a.68.68,0,0,0-.09-.37l-9.51-16.26,5,0c2.18,4,4.3,8,6.31,11.92a.55.55,0,0,0,1,0c2-3.86,4.17-7.86,6.36-11.86Z"/><path class="cls-3" d="M831.33,1053.52l0,26.27-4.34,0v-26.23s0,0,0,0Z"/><path class="cls-3" d="M892.44,1053.47l-9.37,15.89a.65.65,0,0,0-.1.34v10a.26.26,0,0,1-.26.28h-4a.48.48,0,0,1-.47-.49q0-6.57.07-8.86a5.61,5.61,0,0,0-1.12-2.79c-1.35-2.08-4.05-6.9-8-14.3l4.8,0,6.29,11.78a.55.55,0,0,0,.74.21.47.47,0,0,0,.22-.22l6.23-11.84Z"/><path class="cls-3" d="M930.28,1069.21a.41.41,0,0,1,.18-.58c3.65-1.65,5.19-4.37,4.71-8.3-.79-6.31-7.57-6.8-9.65-6.8h0c-3.85,0-7.24,0-10.09,0l-.09,26.32,0,0h4.34l0-9.64a.59.59,0,0,1,.6-.58h5a.68.68,0,0,1,.59.37l5.17,9.75a.27.27,0,0,0,.24.14l4.93,0,0-.06Zm-4.58-2.88h-5.36a.55.55,0,0,1-.56-.55v-8.25a.56.56,0,0,1,.56-.56h5.36c2.8,0,5.07,2,5.07,4.41v.54C930.77,1064.35,928.5,1066.33,925.7,1066.33Z"/><path class="cls-3" d="M963.9,1076.52v3.2a.15.15,0,0,1-.14.15h-18a.14.14,0,0,1-.15-.15v-26.13a.15.15,0,0,1,.15-.15h17.84a.15.15,0,0,1,.14.15v3.19a.13.13,0,0,1-.14.13h-13a.62.62,0,0,0-.61.62v6.59a.61.61,0,0,0,.61.61h11.16a.15.15,0,0,1,.15.14v3a.15.15,0,0,1-.15.15H950.67a.61.61,0,0,0-.61.61v7.18a.61.61,0,0,0,.61.62h13.09A.14.14,0,0,1,963.9,1076.52Z"/><path class="cls-3" d="M1043.56,1053.67a.14.14,0,0,0-.13-.1c-.71-.07-1.43-.11-2.19-.11s-1.48,0-2.18.12a.17.17,0,0,0-.13.1l-10.14,26c0,.1,0,.13,0,.16s0,0,.1,0l4.07,0a.46.46,0,0,0,.44-.29l2.19-5.62a.6.6,0,0,1,.57-.4h0c1.68,0,3.38.05,5.08.05s3.41,0,5.08-.07a.63.63,0,0,1,.59.39l2.21,5.61a.48.48,0,0,0,.44.3h4.08c.12,0,.16-.13.13-.2Zm1.67,16.61-8.06,0-.09,0a.38.38,0,0,1-.23-.5l4-10.86a.35.35,0,0,1,.24-.23.33.33,0,0,1,.29,0,.37.37,0,0,1,.2.21l4,11A.38.38,0,0,1,1045.23,1070.28Z"/><path class="cls-3" d="M1077.76,1069.17a.41.41,0,0,1,.18-.57c3.66-1.67,5.18-4.4,4.69-8.34-.81-6.32-7.63-6.79-9.7-6.78-3.85,0-7.25,0-10.1,0v26.38l0,0h4.35l0-9.65a.58.58,0,0,1,.59-.59h5.06a.68.68,0,0,1,.6.35l5.2,9.76a.27.27,0,0,0,.24.14h4.94l0-.06Zm-4.3-2.81H1068a.63.63,0,0,1-.63-.63v-8.17a.62.62,0,0,1,.61-.63h5.49a4.86,4.86,0,0,1,3.32,1.3,4.32,4.32,0,0,1,1.39,3.17v.46a4.4,4.4,0,0,1-1.37,3.18A4.87,4.87,0,0,1,1073.46,1066.36Z"/><path class="cls-3" d="M1146.29,1053.55v26a.32.32,0,0,1-.31.32h-3.86a.26.26,0,0,1-.26-.26v-11a.52.52,0,0,0-.51-.53c-2.41-.06-4.44-.1-6-.1s-3.63,0-6,.09a.55.55,0,0,0-.37.16.54.54,0,0,0-.15.38v11a.26.26,0,0,1-.26.26h-3.86a.31.31,0,0,1-.31-.32v-26a.08.08,0,0,1,.07-.09h4.24a.06.06,0,0,1,0,.06v10.61a.5.5,0,0,0,.47.48c1.18,0,3.26,0,6.15,0s5,0,6.15,0a.49.49,0,0,0,.47-.48v-10.61a.06.06,0,0,1,.06-.06h4.23A.09.09,0,0,1,1146.29,1053.55Z"/><path class="cls-3" d="M1251.18,1076.43v3.35a.13.13,0,0,1-.12.12H1233.8a.13.13,0,0,1-.12-.12V1053.6a.13.13,0,0,1,.12-.13h4.14a.12.12,0,0,1,.12.13v22.12a.59.59,0,0,0,.6.59h12.4A.13.13,0,0,1,1251.18,1076.43Z"/><path class="cls-3" d="M1311.11,1053.67v3.2a.12.12,0,0,1-.12.12h-8.34a.4.4,0,0,0-.39.39v22.44a.05.05,0,0,1,0,0H1298a.06.06,0,0,1,0-.06l.07-22.44a.39.39,0,0,0-.37-.39l-8.34,0a.12.12,0,0,1-.12-.12v-3.2a.19.19,0,0,1,.18-.18h2.77l8,0h0c3.64,0,7.27,0,10.8,0A.19.19,0,0,1,1311.11,1053.67Z"/><path class="cls-3" d="M1324.87,1053.48v26.4h-4.41v-26.39h4.42Z"/><path class="cls-3" d="M1390.93,1053.52v26.27h-4.23a.36.36,0,0,1-.24-.11,37,37,0,0,1-2.33-3.3c-.47-.74-1-1.49-1.52-2.28-1.27-1.77-2.76-3.93-4.42-6.41l-.34-.52c-1.35-2-2.62-3.91-3.83-5.93a.37.37,0,0,0-.27-.2.51.51,0,0,0-.34,0,.47.47,0,0,0-.21.39v18.28a.09.09,0,0,1-.09.08h-4.2a.1.1,0,0,1-.09-.11v-26.27H1373a.3.3,0,0,1,.25.12,33.12,33.12,0,0,1,2.33,3.3c.46.72,1,1.48,1.52,2.26,1.28,1.8,2.77,4,4.41,6.42l.46.68c1.31,2,2.55,3.8,3.72,5.76a.42.42,0,0,0,.26.21.37.37,0,0,0,.34,0,.43.43,0,0,0,.23-.39v-18.27s0-.07.08-.07h4.19A.1.1,0,0,1,1390.93,1053.52Z"/></svg>